<svg viewBox="0 0 160 160" width="160" height="160" xmlns="http://www.w3.org/2000/svg">
<defs><clipPath id="hexagon-clip-152">
<path d="M251.6 17.34l63.53 110.03c5.72 9.9 5.72 22.1 0 32L251.6 269.4c-5.7 9.9-16.27 16-27.7 16H96.83c-11.43 0-22-6.1-27.7-16L5.6 159.37c-5.7-9.9-5.7-22.1 0-32L69.14 17.34c5.72-9.9 16.28-16 27.7-16H223.9c11.43 0 22 6.1 27.7 16z" transform="scale(0.5) translate(0, 16)"/>
</clipPath></defs>
<g clip-path="url(#hexagon-clip-152)">
<g color="#88B04B" fill="#D94432">
<rect fill="#795548" x="0" y="0" width="160" height="160"/>
<circle cx="80" cy="80" r="40" fill="#88B04B"/>
<g opacity=".1" fill="#010101"><path d="M119.21,80a39.46,39.46,0,0,1-67.13,28.13c10.36,2.33,36,3,49.82-14.28,10.39-12.47,8.31-33.23,4.16-43.26A39.35,39.35,0,0,1,119.21,80Z"/></g>
<path d="M40.1 78.3S52 55.6 84.4 54.8c28.2-1.9 33.6 16.1 33.6 16.1 33.1-25 2.8-38.9 2.8-38.9a22.3 22.3 0 01-14.3 17.4C76.4 56.7 59 42.8 59 42.8s-10.5-12.1-21.2-9.2c-.1.3-10.2 1.5-12.4 15.5a26.4 26.4 0 0014.7 29.2z" fill="#743a4b"/><path d="M40.9 33c-2.7.4-5.8.8-5.8 6.2 0 2.7 3.2 5.9 7.6 8.6 4.4 2.7 9.3 4.7 14.3 5.9l6.4 1.2c13.7-2.8 25.9-4.8 37.9-.9 0 0 31.8-12.8 21.3-20.8-4.2-3.8-11.4 1.8-16.7 5-3.4 2-5.9.9-5.9.9s-1.2-7.7-2-10.2c-2-6.6-5.8-13.8-23.8-13.8S58.9 26.3 58.9 26.3l.1 13.2c-1.7 0-4.4-1.1-7.7-3.1 0 0-5.5-3.7-10.4-3.4z" fill="#93505c"/><path d="M39.6 77.7s15-22.9 44.3-23.5c29.3-.6 34.2 16.1 34.2 16.1L123 67s-19-17.3-40-15c-34.8 2.3-48.5 21.9-48.5 21.9z" opacity=".6"/><path d="M82 15.8S59.7 11 58.8 24.2l.4 15c3.4.2 6.8 0 10.1-.6V25.4c.1 0-1.4-9.7 12.7-9.6z" fill="#743a4b"/>
<path d="M130.8 63c-2.3-2-15.7-.5-15.7-.5l.9 1.9 2.3 4.9c2.5-1.1 5.2-2 7.8-2.4 0 .1 1.9 19.1-.1 21.1s-8.4 3.3-8.4 3.3L117 93l-1 2.6S133 97 133 85c.7-16.3.6-19.6-2.3-22zM24.6 67.9s-4.7.3-6.5 1.3c-.5.2-.4 1 .2 1.5 3.7 2.8 6.5 6.6 8 11 3.4 8.5 3.4 16.7 13.8 20.4 10.4 3.7 14.8 0 14.8 0S62 93 54 84.2c0 0-1.6-1.6-4.7-.6-3.6 1.2-7.5 1.9-11.6-5.7-4.2-7.5-6.2-10.9-13.1-10z" fill="currentColor"/><g fill="#fff"><ellipse cx="24.7" cy="69.6" rx="6.5" ry="1.7" transform="rotate(-3.5 24.7 69.7)" opacity=".3"/><path d="M45.4 85c5.2 1 9 .1 10.5 1.8-.5-.9-.9-1.4-1.9-2.6-.1-.1-2-1.6-4.6-.6-10.9 4-11.6-9.5-17.6-14.1 6.1 7.1 5.7 14 13.6 15.5z" opacity=".3"/><path d="M115.1 62.5s14.6-1.7 16.1 1c-2.3-.8-6-.4-8.8 0l-6.4.8z" opacity=".4"/></g><g fill="#010101"><path d="M19.8 72c4.7 4 5.9 7.9 6.6 9.7 3.3 8.5 3.3 16.7 13.7 20.4 10.4 3.7 14.8 0 14.8 0s5.3-6 1.7-14c0 0 3.9 11-7.9 11-5.4-.1-10.5-.9-14.5-6-5.3-6.8-7.8-19-14.4-21.1z" opacity=".16"/><ellipse cx="24.9" cy="69.6" rx="4.8" ry=".9" transform="rotate(-3.5 24.9 69.7)" opacity=".35"/><path d="M29.8 69.3c.5.9-4.8 1.2-4.8 1.2.4-1.1.3-1.7-.1-1.7 0 0 4.4-.3 4.9.5z" opacity=".35"/><path d="M126.1 66.9S128 86 126 88s-8.4 3.3-8.4 3.3L117 93s8.8-1.2 11-4.1 1-17.9 1-17.9.3-5.3-2.9-4.1z" opacity=".5"/></g>
<g opacity=".3"><ellipse cx="100.5" cy="86.5" rx="14.5" ry="11.7" fill="#fcfcfc"/><path d="M100.5 98.2c-8 0-14.5-5.2-14.5-11.7s6.5-11.7 14.5-11.7S115 80 115 86.5c0-7.3-7.4-13.3-16.5-13.3S82 79.2 82 86.5s7.4 13.3 16.5 13.3 16.5-6 16.5-13.3c0 6.5-6.5 11.7-14.5 11.7z"/></g><g fill="#211309"><ellipse cx="96" cy="86.5" rx="3" ry="5.5"/><ellipse cx="107" cy="86.5" rx="3" ry="5.5"/></g><g fill="#42210b"><path d="M99 86.5c0 3-1.3 5.5-3 5.5-.5 0-1.1-.2-1.4-.6C98 91 98 82 94.3 82c.4-.6 1-.9 1.7-1 1.7 0 3 2.5 3 5.5zM110 86.5c0 3-1.3 5.5-3 5.5-.5 0-1.1-.2-1.4-.6 3.4-.4 3.4-9.4-.3-9.4.4-.6 1-.9 1.7-1 1.7 0 3 2.5 3 5.5z"/><ellipse transform="rotate(-11.5 109.8 69)" cx="109.8" cy="69" rx="3.6" ry="5.1"/><ellipse transform="rotate(-78.5 86.7 67.7)" cx="86.7" cy="67.7" rx="5.7" ry="4"/></g>
<ellipse cx="36.9" cy="126.7" rx="15.4" ry="25.6" transform="rotate(-10.1)"/><path d="M59 118c.3 1.7-1.5 3.6-1.5 3.6s-2.4-1-2.8-3 1.6-3.6 1.6-3.6 2.4 1 2.7 3z" fill="#010101" opacity=".5"/><path d="M120.7 120.8c-2.6 13.5-11.2 23.1-19.2 21.6-7.6-1.4-12-12.2-10.4-24.6C94 116 107 113 115.6 96.3c4.8 4.5 7 14.1 5 24.5z"/><g fill="#010101" opacity=".4"><path d="M49.2 120.3c.8 4.2 4.7 16.4 10 18.5-5.2 1-11.1-7.1-13-18s.7-20.6 6-21.6c-4.6 2.3-3.8 16.9-3 21zM97 116.7c-.7 4-1.4 16.4 2.7 20.2-5-1-7.5-9.8-5.8-19.9l3.4-1.6-.3 1.3z"/></g><g fill="#fff" opacity=".2"><path d="M55.6 92.9a25.6 15.4 79.9 00-1.5.1 25.6 15.4 79.9 00-10.7 28 25.6 15.4 79.9 0019.7 22.5 25.6 15.4 79.9 0010.6-28 25.6 15.4 79.9 00-18-22.6zm-2.5 6.3c5 0 10.4 7.8 12.2 18.1 2 11-.7 20.6-6 21.5a4.9 4.9 0 01-.9 0c-5 0-10.4-7.7-12.2-18-2-11 .7-20.6 6-21.6a4.8 4.8 0 01.9 0zM115.6 96.3C107 113 94 116 91 117.8c-1.6 12.4 2.8 23.2 10.4 24.6 8 1.5 16.6-8.1 19.2-21.6 2-10.4-.3-20-5.1-24.5zm-4 7c1.7 4 2.1 9.8 1 16.2-2 10-7.2 17.4-12 17.4a4.3 4.3 0 01-1 0c-4.9-1-7.4-9.8-5.8-19.9.1-.3 11.2-4 17.8-13.6z"/></g>
</g>
</g></svg>